<svg xmlns="http://www.w3.org/2000/svg" viewBox="0 0 514.65 90.62"><defs><style>.cls-1{fill:#faa51a;fill-rule:evenodd;}.cls-2{fill:#fff;}</style></defs><title>Asset 1</title><g id="Layer_2" data-name="Layer 2"><g id="Layer_1-2" data-name="Layer 1"><path class="cls-1" d="M86.84,41.53H79.29a3.78,3.78,0,0,0,0,7.55h7.55a3.78,3.78,0,1,0,0-7.55Z"/><path class="cls-1" d="M72,24l5.34-5.34A3.78,3.78,0,1,0,72,13.27l-5.34,5.34A3.78,3.78,0,1,0,72,24Z"/><path class="cls-1" d="M45.31,22.65A22.66,22.66,0,1,0,68,45.31,22.67,22.67,0,0,0,45.31,22.65Z"/><path class="cls-1" d="M45.31,15.1a3.78,3.78,0,0,0,3.78-3.77V3.78a3.78,3.78,0,0,0-7.56,0v7.55A3.77,3.77,0,0,0,45.31,15.1Z"/><path class="cls-1" d="M18.61,24A3.78,3.78,0,1,0,24,18.61l-5.34-5.34a3.78,3.78,0,0,0-5.34,5.34Z"/><path class="cls-1" d="M15.1,45.31a3.77,3.77,0,0,0-3.77-3.78H3.77a3.78,3.78,0,0,0,0,7.55h7.56A3.77,3.77,0,0,0,15.1,45.31Z"/><path class="cls-1" d="M18.61,66.67,13.27,72a3.77,3.77,0,1,0,5.34,5.33L24,72a3.78,3.78,0,1,0-5.34-5.34Z"/><path class="cls-1" d="M45.31,75.51a3.78,3.78,0,0,0-3.78,3.78v7.55a3.78,3.78,0,0,0,7.56,0V79.29A3.78,3.78,0,0,0,45.31,75.51Z"/><path class="cls-1" d="M72,66.67A3.78,3.78,0,0,0,66.67,72L72,77.34A3.77,3.77,0,1,0,77.35,72Z"/><path class="cls-2" d="M111.22,52.19a12.88,12.88,0,0,0-.2,2.17c0,4.29,2.58,7.13,8.12,7.13,5.22,0,9.57-2.57,9.57-7.06,0-10-19.21-7.72-19.21-21.78,0-7.4,5.75-11.88,14.13-11.88,6.86,0,13.2,3,13.2,9.63a11.55,11.55,0,0,1-.2,2.05L131,33.64a14.2,14.2,0,0,0,.13-1.65c0-4.16-2.64-6.47-7.32-6.47-5.09,0-8.39,2.77-8.39,6.86,0,9.77,19.21,8.32,19.21,21.32,0,6.93-5.74,12.54-15.25,12.54-7.52,0-14-3.43-14-10.42a11,11,0,0,1,.27-2.45Z"/><path class="cls-2" d="M146.07,39.25h-4.62L142,35h9.77l-3.3,23a11.13,11.13,0,0,0-.13,1.45c0,1.45.39,2.05,1.78,2.05a8.56,8.56,0,0,0,3-.6l-.6,4.36a20,20,0,0,1-3.76.4c-3.7,0-5.61-2-5.61-5.61,0-.6.07-1.26.13-1.92Zm3.76-18.42a3.69,3.69,0,0,1,3.7,3.7,3.7,3.7,0,1,1-3.7-3.7Z"/><path class="cls-2" d="M163.56,39.25h-4.62l.59-4.23h9.77l-1.45,8.32h.33c1.71-3.5,5.48-9.24,12.41-9.24,6,0,6.66,4.55,6.66,9.24h.27c1.78-3.5,5.54-9.24,12.6-9.24,5.28,0,6.8,3.63,6.8,7.52,0,5.81-3,13.8-3,17.89,0,1.45.39,2.05,1.78,2.05a7,7,0,0,0,2.7-.6l-.59,4.36a16.37,16.37,0,0,1-3.43.4c-3.7,0-5.55-2-5.55-5.61,0-4.82,2.91-12.35,2.91-17.17,0-2.5-1-4.29-3.24-4.29-6.86,0-11.75,12.48-12.6,17.56l-1.32,9.11H179.4l2.9-19.93a16.71,16.71,0,0,0,.13-1.92c0-2.44-.72-4.82-3.36-4.82-6.54,0-11.69,12-12.74,17.69l-1.26,9h-5.14Z"/><path class="cls-2" d="M219,39.25h-4.62L215,35h9.64s-.47,3.57-1.06,6.54l.26.13c1.92-3.3,5.61-7.59,10.83-7.59s8.91,4.16,8.91,11.55c0,8.58-4.62,20.59-15.31,20.59-4,0-6.21-1.84-7.4-3.89l-2.44,18h-5.15Zm9,22.64c7.06,0,9.9-11,9.9-16.57,0-4.42-1.78-6.86-4.29-6.86-5.48,0-11.62,10-11.62,16.5C222,58.79,223.88,61.89,228,61.89Z"/><path class="cls-2" d="M255.1,22.15h-4.62l.59-4.22h9.77l-5.68,40.13a13.19,13.19,0,0,0-.13,1.45c0,1.45.4,2.05,1.78,2.05a8.56,8.56,0,0,0,3-.6l-.59,4.36a20.18,20.18,0,0,1-3.77.4c-3.69,0-5.61-2-5.61-5.61a18.87,18.87,0,0,1,.14-1.92Z"/><path class="cls-2" d="M280.84,34.1c4.68,0,8.78,2,8.78,6.86,0,6.28-6.8,8.26-11.75,10l-7.06,2.57c0,6,2.11,8.32,5.67,8.32,4,0,6.34-2.58,7.66-5.74l4.22,1.38c-2,4.49-5,8.71-12.34,8.71-6.8,0-10.83-3.89-10.83-12.73C265.19,45.06,269.29,34.1,280.84,34.1Zm-4.23,13.14c3.24-1.19,7.46-2.65,7.46-6.08,0-1.58-1.25-2.7-3.76-2.7-5.35,0-8.18,5.28-9.17,10.82Z"/><path class="cls-2" d="M293.25,23h8.12l6.82,28.84L315.3,23h5.8l7,29,6.95-29h8.12L332.93,65.32h-8.58l-6.2-25.94-6.22,25.94h-8.54Z"/><path class="cls-2" d="M373.53,53.43H353.77a6.71,6.71,0,0,0,1.76,4.35,5,5,0,0,0,3.72,1.68,6.69,6.69,0,0,0,6-3.45l7.58,2.51q-4.23,7.38-13.12,7.38-6.54,0-10.41-4t-3.87-10.67a13.77,13.77,0,0,1,4.08-10.12,13.61,13.61,0,0,1,10-4.09,13.13,13.13,0,0,1,10,4.3,15.17,15.17,0,0,1,4,10.75Zm-19.69-5.54H365q-1.17-5.19-5.32-5.19a5.51,5.51,0,0,0-5.83,5.19Z"/><path class="cls-2" d="M397.73,65.32V60.58h-.13a14.44,14.44,0,0,1-3.9,4,9,9,0,0,1-4.86,1.24,10.36,10.36,0,0,1-8.29-4.19,15.65,15.65,0,0,1-3.41-10.19,15,15,0,0,1,3.64-10.16,11.05,11.05,0,0,1,8.64-4.24,8.63,8.63,0,0,1,4.28,1.06,16.88,16.88,0,0,1,4,3.39V37.67H406V65.32Zm-6.06-20a5.13,5.13,0,0,0-4.09,1.95,7.34,7.34,0,0,0-1.65,4.91,6.35,6.35,0,0,0,1.57,4.47,5.35,5.35,0,0,0,4.11,1.69,5.43,5.43,0,0,0,4.19-1.95,6.85,6.85,0,0,0,1.74-4.72,6.38,6.38,0,0,0-1.74-4.47A5.46,5.46,0,0,0,391.67,45.31Z"/><path class="cls-2" d="M415.49,28.1h8.25v9.51h4v7.57h-4V65.32h-8.25V45.18h-3.16V37.61h3.16Z"/><path class="cls-2" d="M433.28,22.3h8.37V40.83A18.12,18.12,0,0,1,445.84,38a10.85,10.85,0,0,1,4.48-.87,8.18,8.18,0,0,1,6.82,3.15c1.64,2.09,2.46,5,2.46,8.71V65.32h-8.31V50.46A7.27,7.27,0,0,0,449.92,46a4.07,4.07,0,0,0-3.37-1.82,4,4,0,0,0-3.72,2.09c-.78,1.4-1.18,3.58-1.18,6.54V65.32h-8.37Z"/><path class="cls-2" d="M493.47,53.43H473.72a6.66,6.66,0,0,0,1.76,4.35,5,5,0,0,0,3.72,1.68,6.7,6.7,0,0,0,6-3.45l7.57,2.51q-4.22,7.38-13.11,7.38-6.54,0-10.41-4t-3.87-10.67a13.77,13.77,0,0,1,4.08-10.12,13.61,13.61,0,0,1,10-4.09,13.1,13.1,0,0,1,10,4.3,15.13,15.13,0,0,1,4,10.75Zm-19.69-5.54h11.15q-1.15-5.19-5.31-5.19a5.53,5.53,0,0,0-5.84,5.19Z"/><path class="cls-2" d="M507.14,37.61V41.7h.13a10.68,10.68,0,0,1,2.85-3.27,5.15,5.15,0,0,1,3-1.21,7.83,7.83,0,0,1,1.52.13v9a11,11,0,0,0-2-.19A4.7,4.7,0,0,0,508.67,48a7.9,7.9,0,0,0-1.4,5V65.32h-8.38V37.61Z"/></g></g></svg>