<svg xmlns="http://www.w3.org/2000/svg" viewBox="0 0 48 48"><defs><style>.cls-1{fill:orange;fill-rule:evenodd;}</style></defs><title>clear-day</title><g id="Layer_2" data-name="Layer 2"><g id="Layer_1-2" data-name="Layer 1"><path class="cls-1" d="M46,22H42a2,2,0,0,0,0,4h4a2,2,0,0,0,0-4Z"/><path class="cls-1" d="M38.1,12.7l2.8-2.8a2,2,0,0,0-2.8-2.8L35.3,9.9a2,2,0,0,0,2.8,2.8Z"/><path class="cls-1" d="M24,12A12,12,0,1,0,36,24,12,12,0,0,0,24,12Z"/><path class="cls-1" d="M24,8a2,2,0,0,0,2-2V2a2,2,0,0,0-4,0V6A2,2,0,0,0,24,8Z"/><path class="cls-1" d="M9.9,12.7a2,2,0,1,0,2.8-2.8L9.9,7A2,2,0,0,0,7.1,9.8Z"/><path class="cls-1" d="M8,24a2,2,0,0,0-2-2H2a2,2,0,0,0,0,4H6A2,2,0,0,0,8,24Z"/><path class="cls-1" d="M9.9,35.3,7,38.1a2,2,0,0,0,2.8,2.8l2.8-2.8a1.93,1.93,0,0,0,0-2.8A1.82,1.82,0,0,0,9.9,35.3Z"/><path class="cls-1" d="M24,40a2,2,0,0,0-2,2v4a2,2,0,0,0,4,0V42A2,2,0,0,0,24,40Z"/><path class="cls-1" d="M38.1,35.3a2,2,0,0,0-2.8,2.8l2.8,2.8a2,2,0,0,0,2.8-2.8Z"/></g></g></svg>