<svg xmlns="http://www.w3.org/2000/svg" viewBox="0 0 44 37.5"><defs><style>.cls-1{fill:#57a0ee;}.cls-1,.cls-2{fill-rule:evenodd;}.cls-2{fill:#ebc815;}</style></defs><title>cloudy-night</title><g id="Layer_2" data-name="Layer 2"><g id="Layer_1-2" data-name="Layer 1"><path class="cls-1" d="M41.2,17.8a12.11,12.11,0,0,1-2.4,3.5A7.63,7.63,0,0,1,40,25.5a8,8,0,0,1-8,8H16a12,12,0,0,1,0-24,19.42,19.42,0,0,1,2.4.2A12.45,12.45,0,0,1,20.1,6,18.41,18.41,0,0,0,16,5.5a16,16,0,0,0,0,32H32a12,12,0,0,0,12-12A11.56,11.56,0,0,0,41.2,17.8Z"/><path class="cls-2" d="M28,19.1a7.86,7.86,0,0,1,11,2.4,12.24,12.24,0,0,0,4-9.1,17.85,17.85,0,0,0-.2-2.3,11.08,11.08,0,0,1-1.9.2,8.24,8.24,0,0,1-8.2-8.2A13.66,13.66,0,0,1,32.9.2,15.16,15.16,0,0,0,30.6,0,12.34,12.34,0,0,0,18.5,10,11.88,11.88,0,0,1,28,19.1Z"/></g></g></svg>