<svg xmlns="http://www.w3.org/2000/svg" viewBox="0 0 44 40"><defs><style>.cls-1{fill:#57a0ee;}.cls-1,.cls-2{fill-rule:evenodd;}.cls-2,.cls-3{fill:#91c0f8;}</style></defs><title>cloud-sleet</title><g id="Layer_2" data-name="Layer 2"><g id="Layer_1-2" data-name="Layer 1"><path class="cls-1" d="M36,31.3V26.9A8,8,0,0,0,32,12a7.79,7.79,0,0,0-4.3,1.3A12,12,0,0,0,4,16a11.81,11.81,0,0,0,4,8.9v4.9A16,16,0,0,1,16,0,16.1,16.1,0,0,1,30,8.2,13.55,13.55,0,0,1,32,8,12,12,0,0,1,44,20,11.81,11.81,0,0,1,36,31.3Z"/><path class="cls-2" d="M14,24a2,2,0,1,1-2,2A2,2,0,0,1,14,24Z"/><path class="cls-2" d="M14,32a2,2,0,1,1-2,2A2,2,0,0,1,14,32Z"/><circle class="cls-3" cx="22" cy="30" r="2"/><circle class="cls-3" cx="22" cy="38" r="2"/><path class="cls-2" d="M30,24a2,2,0,1,1-2,2A2,2,0,0,1,30,24Z"/><path class="cls-2" d="M30,32a2,2,0,1,1-2,2A2,2,0,0,1,30,32Z"/></g></g></svg>