<svg xmlns="http://www.w3.org/2000/svg" viewBox="0 0 53.9 48.1"><defs><style>.cls-1{fill:orange;}.cls-1,.cls-2{fill-rule:evenodd;}.cls-2{fill:#57a0ee;}</style></defs><title>cloudy-day</title><g id="Layer_2" data-name="Layer 2"><g id="Layer_1-2" data-name="Layer 1"><path class="cls-1" d="M51.9,26h-4a2,2,0,0,1,0-4h4a2,2,0,1,1,0,4Z"/><path class="cls-1" d="M44.1,12.7a2,2,0,0,1-2.8-2.8l2.8-2.8a2,2,0,0,1,2.8,2.8Z"/><path class="cls-1" d="M29.9,8a2,2,0,0,1-2-2V2a2,2,0,0,1,4,0V6A2,2,0,0,1,29.9,8Z"/><path class="cls-1" d="M15.8,12.7,13,9.9a2,2,0,0,1,2.8-2.8l2.8,2.8a2,2,0,1,1-2.8,2.8Z"/><path class="cls-1" d="M27.7,29.4A8,8,0,0,1,32,28.1a7.92,7.92,0,0,1,7,4.2,12.4,12.4,0,1,0-21.1-12A12,12,0,0,1,27.7,29.4Z"/><path class="cls-2" d="M41.2,28.4a12.11,12.11,0,0,1-2.4,3.5A7.63,7.63,0,0,1,40,36.1a8,8,0,0,1-8,8H16a12,12,0,0,1,0-24,19.42,19.42,0,0,1,2.4.2,12.45,12.45,0,0,1,1.7-3.7,18.41,18.41,0,0,0-4.1-.5,16,16,0,0,0,0,32H32a12,12,0,0,0,12-12A12.69,12.69,0,0,0,41.2,28.4Z"/></g></g></svg>