<svg xmlns="http://www.w3.org/2000/svg" viewBox="0 0 41.3 30.4"><defs><style>.cls-1,.cls-2{fill:none;stroke-linecap:round;}.cls-1,.cls-2,.cls-3{stroke:orange;}.cls-1,.cls-3{stroke-width:2px;}.cls-2{stroke-width:2px;}.cls-3{fill:orange;}.cls-4{fill:#c6deff;stroke:#fff;stroke-linejoin:round;stroke-width:1.2px;}</style></defs><title>cloudy-day-1-cp</title><g id="Layer_2" data-name="Layer 2"><g id="Layer_1-2" data-name="Layer 1"><g id="cloudy-day-1"><line class="cls-1" x1="13" y1="22" x2="13" y2="25"/><line class="cls-2" x1="6.64" y1="19.36" x2="4.51" y2="21.49"/><line class="cls-1" x1="4" y1="13" x2="1" y2="13"/><line class="cls-2" x1="6.64" y1="6.64" x2="4.51" y2="4.51"/><line class="cls-1" x1="13" y1="4" x2="13" y2="1"/><line class="cls-2" x1="19.36" y1="6.64" x2="21.49" y2="4.51"/><line class="cls-1" x1="22" y1="13" x2="25" y2="13"/><line class="cls-2" x1="19.36" y1="19.36" x2="21.49" y2="21.49"/><circle class="cls-3" cx="13" cy="13" r="5"/><path class="cls-4" d="M40.7,21.4a8.17,8.17,0,0,0-8.2-8.2,8.68,8.68,0,0,0-2.8.5,6.66,6.66,0,0,0-13.3.5,8.52,8.52,0,0,0,.4,2.3,3.4,3.4,0,0,0-1-.1,6.7,6.7,0,0,0-.2,13.4H32.8A8.64,8.64,0,0,0,40.7,21.4Z"/></g></g></g></svg>