<svg xmlns="http://www.w3.org/2000/svg" viewBox="0 0 44 30"><defs><style>.cls-1{fill:#57a0ee;fill-rule:evenodd;}</style></defs><title>fog</title><g id="Layer_2" data-name="Layer 2"><g id="Layer_1-2" data-name="Layer 1"><path class="cls-1" d="M1.2,22a6.64,6.64,0,0,1-.6-2H44a13.55,13.55,0,0,1-.2,2ZM8.3,2A15.5,15.5,0,0,1,16,0a15.5,15.5,0,0,1,7.7,2ZM.1,14a14.16,14.16,0,0,1,.4-2H40.9a14.91,14.91,0,0,1,1.5,2Zm1.1-4a12.44,12.44,0,0,1,1-2H29.9c0,.1.1.1.1.2A13.55,13.55,0,0,1,32,8a11.44,11.44,0,0,1,6.6,2ZM3.5,6A18,18,0,0,1,5.4,4H26.5a18,18,0,0,1,1.9,2ZM43.8,18H.1A13.4,13.4,0,0,1,0,16H43.3A19.45,19.45,0,0,1,43.8,18Zm-.5,6a12.15,12.15,0,0,1-.9,2H3.5a14.29,14.29,0,0,1-1.4-2ZM5.4,28H40.9a11,11,0,0,1-2.3,2H8.3A11.54,11.54,0,0,1,5.4,28Z"/></g></g></svg>