<svg xmlns="http://www.w3.org/2000/svg" viewBox="0 0 44 44"><defs><style>.cls-1{fill:#57a0ee;}.cls-1,.cls-2{fill-rule:evenodd;}.cls-2{fill:#91c0f8;}</style></defs><title>rain</title><g id="Layer_2" data-name="Layer 2"><g id="Layer_1-2" data-name="Layer 1"><path class="cls-1" d="M36,31.3V26.9A8,8,0,0,0,32,12a7.79,7.79,0,0,0-4.3,1.3A12,12,0,0,0,4,16a12.17,12.17,0,0,0,4,8.9v4.9A16,16,0,0,1,16,0,16.1,16.1,0,0,1,30,8.2,13.55,13.55,0,0,1,32,8,12,12,0,0,1,44,20,11.81,11.81,0,0,1,36,31.3Z"/><path class="cls-2" d="M14,20a2,2,0,0,1,2,2V38a2,2,0,0,1-4,0V22A2,2,0,0,1,14,20Z"/><path class="cls-2" d="M22,24a2,2,0,0,1,2,2V42a2,2,0,0,1-4,0V26A2,2,0,0,1,22,24Z"/><path class="cls-2" d="M30,20a2,2,0,0,1,2,2V38a2,2,0,0,1-4,0V22A2,2,0,0,1,30,20Z"/></g></g></svg>