<svg xmlns="http://www.w3.org/2000/svg" viewBox="0 0 44 37.8"><defs><style>.cls-1{fill:#57a0ee;}.cls-1,.cls-2{fill-rule:evenodd;}.cls-2{fill:#91c0f8;}</style></defs><title>snow</title><g id="Layer_2" data-name="Layer 2"><g id="Layer_1-2" data-name="Layer 1"><path class="cls-1" d="M34,31.8V27.7A8,8,0,0,0,32,12a7.79,7.79,0,0,0-4.3,1.3A12,12,0,1,0,10,26.4v4.4A16,16,0,0,1,16,0,16.1,16.1,0,0,1,30,8.2,13.55,13.55,0,0,1,32,8a12,12,0,0,1,2,23.8Z"/><path class="cls-2" d="M28.2,31.2,26,29.9l2.2-1.3a2,2,0,0,0-2-3.4L24,26.5V24a2,2,0,0,0-4,0v2.5l-2.2-1.3a2,2,0,0,0-2,3.4L18,29.9l-2.2,1.3a2,2,0,1,0,2,3.4L20,33.3v2.5a2,2,0,0,0,4,0V33.3l2.2,1.3a1.94,1.94,0,0,0,2.7-.7A1.9,1.9,0,0,0,28.2,31.2Zm-6.2.7a2,2,0,1,1,2-2A2,2,0,0,1,22,31.9Z"/></g></g></svg>