<svg xmlns="http://www.w3.org/2000/svg" viewBox="0 0 54 48"><defs><style>.cls-1{fill:#57a0ee;fill-rule:evenodd;}</style></defs><title>wind</title><g id="Layer_2" data-name="Layer 2"><g id="Layer_1-2" data-name="Layer 1"><path class="cls-1" d="M48.7,36H45a2,2,0,0,1,0-4h3a2,2,0,0,0,0-4,2,2,0,0,1,0-4h.4a6,6,0,0,1,.3,12Z"/><path class="cls-1" d="M38,24a2,2,0,0,1,0-4h.4A6,6,0,0,1,44,26a5.87,5.87,0,0,1-5.2,5.9V32H16a2,2,0,0,0,0,4H38.8v.1A5.94,5.94,0,0,1,44,42a6.09,6.09,0,0,1-5.6,6H38a2,2,0,0,1,0-4,2,2,0,0,0,0-4H15.2v-.1A6,6,0,0,1,9.9,34a5.74,5.74,0,0,1,.8-2.9A16,16,0,0,1,16,0,16.1,16.1,0,0,1,30,8.2,13.55,13.55,0,0,1,32,8a12,12,0,0,1,11.8,9.9A10.41,10.41,0,0,0,39,16.1a8,8,0,0,0-6.9-4,7.79,7.79,0,0,0-4.3,1.3A12,12,0,1,0,16.1,28.1H38a2,2,0,0,0,2-2A2,2,0,0,0,38,24Z"/></g></g></svg>